<?xml version="1.0" standalone="no"?>
<!DOCTYPE svg PUBLIC "-//W3C//DTD SVG 20010904//EN"
 "http://www.w3.org/TR/2001/REC-SVG-20010904/DTD/svg10.dtd">
<svg version="1.0" xmlns="http://www.w3.org/2000/svg"
   viewBox="0 0 355.000000 142.000000"
 preserveAspectRatio="xMidYMid meet">

<g transform="translate(0.000000,142.000000) scale(0.100000,-0.100000)"
fill="#DF0024" stroke="none">
<path d="M1440 746 c0 -133 4 -217 10 -221 7 -4 10 70 10 214 0 141 -4 221    
-10 221 -6 0 -10 -78 -10 -214z"/>
<path d="M1910 895 l0 -45 -39 0 c-47 0 -86 -28 -101 -75 -9 -29 -8 -41 8 -78
23 -53 69 -75 117 -57 19 7 31 7 41 -1 28 -23 34 2 34 132 0 136 -8 169 -40
169 -17 0 -20 -7 -20 -45z m-9 -95 c5 0 9 -25 9 -55 0 -50 -2 -55 -25 -61 -57
-14 -92 76 -43 111 13 8 29 13 36 10 8 -3 18 -5 23 -5z"/>
<path d="M2738 898 c-3 -36 -7 -43 -28 -48 -16 -4 -25 -13 -25 -25 0 -12 9
-21 25 -25 24 -6 25 -10 25 -74 0 -55 4 -70 19 -81 10 -8 23 -12 27 -9 5 3 9
41 9 84 0 74 1 79 23 82 14 2 22 10 22 23 0 13 -8 21 -22 23 -19 3 -23 10 -23
36 0 65 -47 78 -52 14z"/>
<path d="M104 850 c-26 -10 -54 -48 -54 -72 0 -24 32 -23 55 2 10 11 28 20 41
20 25 0 54 -34 54 -62 0 -21 -34 -58 -53 -58 -8 0 -24 9 -37 20 -13 11 -31 20
-42 20 -16 0 -18 -9 -18 -88 0 -87 8 -112 37 -112 8 0 13 20 15 58 3 53 5 57
26 54 44 -6 93 18 108 54 43 103 -37 203 -132 164z"/>
<path d="M575 850 c-25 -10 -40 -28 -49 -58 -10 -32 19 -40 48 -13 30 28 62
27 82 -4 21 -32 11 -72 -21 -87 -21 -10 -29 -8 -48 10 -13 12 -33 22 -45 22
-21 0 -22 -4 -22 -84 0 -64 4 -88 16 -100 26 -27 33 -19 36 42 l3 57 35 -3
c51 -4 97 28 106 73 19 104 -55 180 -141 145z"/>
<path d="M830 853 c-29 -11 -60 -47 -60 -70 0 -29 30 -31 55 -3 20 22 55 26
73 8 17 -17 15 -74 -4 -92 -21 -21 -36 -20 -67 4 -49 39 -57 29 -57 -68 0 -87
8 -112 37 -112 8 0 13 19 15 56 l3 56 42 2 c49 3 78 24 93 72 29 88 -49 176
-130 147z"/>
<path d="M319 821 c-24 -24 -29 -38 -29 -76 0 -25 7 -57 16 -70 20 -30 74 -47
114 -35 46 13 51 19 40 40 -9 16 -15 18 -37 9 -32 -12 -60 -4 -73 22 -10 18
-7 19 55 19 75 0 84 9 65 65 -14 41 -35 55 -85 55 -27 0 -44 -8 -66 -29z m95
-27 c22 -22 11 -34 -30 -34 -53 0 -46 29 13 49 1 1 9 -6 17 -15z"/>
<path d="M1039 821 c-32 -32 -39 -88 -18 -134 21 -46 96 -65 148 -38 17 10 19
16 11 31 -9 16 -15 18 -37 9 -32 -12 -60 -4 -73 21 -9 18 -5 19 57 22 l68 3 3
32 c8 78 -99 114 -159 54z m95 -27 c22 -22 11 -34 -30 -34 -53 0 -46 29 13 49
1 1 9 -6 17 -15z"/>
<path d="M1250 743 c0 -103 0 -103 25 -103 23 0 24 3 27 77 3 78 3 78 33 83
21 4 31 12 33 27 3 21 0 22 -57 20 l-61 -1 0 -103z"/>
<path d="M1565 828 c-32 -28 -44 -93 -25 -137 17 -41 71 -66 112 -52 22 8 35
8 42 1 5 -5 16 -10 23 -10 10 0 13 24 13 98 0 53 -4 102 -8 108 -4 5 -35 11
-69 12 -51 2 -66 -1 -88 -20z m108 -42 c4 -6 6 -29 5 -51 -3 -34 -7 -41 -32
-50 -24 -8 -31 -6 -47 14 -25 30 -24 66 2 92 21 21 56 19 72 -5z"/>
<path d="M2010 841 c0 -6 22 -56 49 -113 l50 -103 52 108 c28 60 49 111 46
114 -4 3 -17 3 -31 -1 -17 -4 -29 -19 -42 -51 -9 -25 -20 -45 -24 -45 -4 0
-13 15 -20 33 -8 17 -20 40 -28 50 -16 18 -52 24 -52 8z"/>
<path d="M2275 838 c-11 -6 -25 -19 -32 -27 -17 -23 -16 -112 2 -138 20 -29
75 -46 107 -34 15 5 30 6 39 0 8 -5 18 -9 22 -9 4 0 6 48 5 107 l-3 107 -60 3
c-33 1 -69 -3 -80 -9z m76 -38 c15 -8 19 -21 19 -60 0 -45 -2 -50 -25 -56 -57
-14 -92 76 -43 110 27 19 24 19 49 6z"/>
<path d="M2470 746 c0 -62 4 -107 10 -111 23 -14 39 17 42 82 2 50 7 69 21 77
33 21 52 -4 55 -75 3 -67 14 -91 38 -82 11 4 14 26 14 89 0 73 -3 86 -22 104
-24 22 -77 27 -95 9 -8 -8 -17 -8 -31 0 -11 6 -23 11 -26 11 -3 0 -6 -47 -6
-104z"/>
<path d="M2890 821 c-77 -76 -2 -218 95 -181 20 7 31 8 39 0 5 -5 16 -10 23
-10 18 0 19 195 1 206 -7 5 -39 10 -71 11 -53 3 -60 1 -87 -26z m113 -35 c4
-6 6 -29 5 -51 -3 -33 -7 -41 -30 -49 -57 -20 -92 60 -47 105 21 21 56 19 72
-5z"/>
<path d="M3145 838 c-44 -25 -60 -74 -44 -132 12 -45 50 -71 101 -70 38 1 46
-8 29 -35 -7 -10 -21 -12 -59 -7 -60 8 -77 -7 -42 -36 34 -28 105 -24 136 7
24 24 25 28 22 152 l-3 127 -60 3 c-33 1 -69 -3 -80 -9z m76 -38 c15 -8 19
-21 19 -59 0 -49 -9 -61 -45 -61 -45 0 -62 87 -23 114 27 19 24 19 49 6z"/>
<path d="M3377 839 c-9 -5 -24 -23 -32 -39 -39 -76 3 -161 81 -162 46 0 87 17
81 35 -2 7 -23 12 -48 12 -49 0 -69 9 -69 30 0 10 17 15 63 17 62 3 62 3 65
35 5 46 -34 83 -85 83 -21 0 -46 -5 -56 -11z m90 -62 c-4 -13 -77 -23 -77 -10
0 13 14 30 30 35 20 7 52 -10 47 -25z"/>
</g>
</svg>
